<?xml version="1.0" encoding="utf-8"?>
<!-- Generator: Adobe Illustrator 24.3.0, SVG Export Plug-In . SVG Version: 6.00 Build 0)  -->
<svg version="1.1" id="图层_1" xmlns="http://www.w3.org/2000/svg" xmlns:xlink="http://www.w3.org/1999/xlink" x="0px" y="0px"
	 viewBox="0 0 64 64" style="enable-background:new 0 0 64 64;" xml:space="preserve">
<style type="text/css">
	.st0{fill:#3B3E43;}
	.st1{fill:none;stroke:#3B3E43;stroke-linecap:round;stroke-dasharray:40,64;}
	.st2{fill:none;stroke:#D23F31;stroke-linecap:round;stroke-dasharray:40,64;}
</style>
<path class="st0" d="M23.9,26.1C23.9,26.1,23.8,26.1,23.9,26.1L23.9,26.1C23.9,26,24,26,23.9,26.1C23.9,26,23.9,26,23.9,26.1z
	 M22.8,27.1L22.8,27.1C22.8,27.1,22.8,27.2,22.8,27.1C22.8,27.2,22.8,27.2,22.8,27.1C22.8,27.2,22.8,27.2,22.8,27.1
	C22.9,27.1,22.9,27.1,22.8,27.1z M34.8,37c-0.1,0.1-0.2,0.2-0.2,0.3S34.7,37.2,34.8,37c0.2-0.1,0.3-0.2,0.3-0.2S34.9,36.9,34.8,37z
	 M23.7,38.9L23.7,38.9L23.7,38.9C23.7,38.8,23.8,38.8,23.7,38.9C23.8,38.8,23.7,38.8,23.7,38.9z M21.2,41.3L21.2,41.3L21.2,41.3
	C21.3,41.2,21.3,41.2,21.2,41.3C21.3,41.2,21.3,41.2,21.2,41.3z"/>
<circle class="st1" cx="32" cy="32" r="31">
<animateTransform  accumulate="none" additive="replace" attributeName="transform" begin="0s" calcMode="linear" dur="1.5s" fill="remove" keyTimes="0;1" repeatCount="indefinite" restart="always" type="rotate" values="0 32 32;360 32 32">
	</animateTransform>
</circle>
<circle class="st2" cx="32" cy="32" r="29">
<animateTransform  accumulate="none" additive="replace" attributeName="transform" begin="0s" calcMode="linear" dur="1.5s" fill="remove" keyTimes="0;1" repeatCount="indefinite" restart="always" type="rotate" values="0 32 32;-360 32 32">
	</animateTransform>
</circle>
<image style="overflow:visible;enable-background:new    ;" width="512" height="512" xlink:href="icon.png"  transform="matrix(7.064494e-02 0 0 6.954111e-02 15.0638 12.9371)">
</image>
</svg>
